PathFileType	4	(X/Y/Z)	D:\TRACE\spotREDO_2-26-24\spot_baseline_4-platform.trc
DataRate	CameraRate	NumFrames	NumMarkers	Units	OrigDataRate	OrigDataStartFrame	OrigNumFrames
100.00	100.00	      25	5	mm	100.00	3501	      7000
Frame#	Time	Left_Front			Right_Front			Left_Aft			Right_Aft			Post			
		X1	Y1	Z1	X2	Y2	Z2	X3	Y3	Z3	X4	Y4	Z4	X5	Y5	Z5	

3501	35.000	-696.90918	-3.91279	-575.70715	718.18085	4.91613	-490.81055	-768.13354	5.07673	643.64362	801.18665	11.41102	647.82990	4.41338	741.39398	-982.90210	
3502	35.010	-696.87946	-3.92883	-575.68634	718.20972	4.94822	-490.76324	-768.21124	4.90281	643.50153	801.16852	11.40806	647.83405	4.45893	741.38306	-982.89276	
3503	35.020	-696.87439	-3.87923	-575.66223	718.20374	4.95099	-490.77896	-768.16425	5.10611	643.66797	801.24634	11.45098	647.82898	4.43099	741.39923	-982.88361	
3504	35.030	-696.90607	-3.89664	-575.65436	718.20038	4.88162	-490.78113	-768.19550	4.85416	643.46716	801.25977	11.42794	647.80823	4.44129	741.38983	-982.86499	
3505	35.040	-696.86035	-3.94334	-575.63062	718.21143	4.91040	-490.77789	-768.19269	4.86799	643.52289	801.23535	11.43279	647.82495	4.43421	741.41461	-982.82355	
3506	35.050	-696.86353	-3.89750	-575.64655	718.22308	4.90088	-490.77454	-768.20831	4.84852	643.48230	801.30042	11.43845	647.85724	4.41946	741.38910	-982.81488	
3507	35.060	-696.88055	-3.91038	-575.63885	718.11505	5.16421	-490.90985	-768.20538	4.87237	643.53680	801.18091	11.42043	647.84753	4.38057	741.40326	-982.78448	
3508	35.070	-696.90558	-3.90461	-575.67706	718.23285	4.93499	-490.82526	-768.19550	4.89668	643.50189	801.17529	11.38770	647.81940	4.36672	741.43011	-982.79169	
3509	35.080	-696.89172	-3.90148	-575.66663	718.21960	4.92159	-490.80594	-768.18683	4.87564	643.53113	801.24847	11.40656	647.80609	4.36589	741.45978	-982.80145	
3510	35.090	-696.87396	-3.89110	-575.66766	718.08893	5.16111	-491.02457	-768.17706	4.86089	643.49426	801.20300	11.42254	647.80157	4.39448	741.43170	-982.81116	
3511	35.100	-696.86823	-3.90017	-575.67883	718.21509	4.93851	-490.80823	-768.21863	4.86603	643.48468	801.22095	11.44006	647.83331	4.39478	741.41748	-982.84119	
3512	35.110	-696.85779	-3.92634	-575.67542	718.25104	4.94213	-490.73618	-768.21826	4.88175	643.49615	801.28418	11.40401	647.81287	4.34283	741.38715	-982.83728	
3513	35.120	-696.86139	-3.94595	-575.66675	718.26587	4.94473	-490.76001	-768.20325	4.83920	643.47589	801.21802	11.38422	647.82556	4.37192	741.38580	-982.84918	
3514	35.130	-696.83832	-3.93671	-575.67938	718.09003	5.08453	-490.93320	-768.23206	4.85888	643.49969	801.26642	11.39663	647.80542	4.37700	741.37012	-982.91022	
3515	35.140	-696.89307	-3.89042	-575.69293	718.09912	5.11685	-490.92303	-768.21790	4.89201	643.50818	801.20093	11.39471	647.81976	4.38270	741.40863	-982.87915	
3516	35.150	-696.83997	-3.91151	-575.66528	718.20343	4.90973	-490.74808	-768.22046	4.87905	643.46082	801.23706	11.39436	647.81683	4.31566	741.39307	-982.86865	
3517	35.160	-696.89166	-3.85568	-575.67639	718.08276	5.16583	-490.96161	-768.19690	4.85890	643.52087	801.24896	11.47442	647.81958	4.34495	741.44250	-982.88727	
3518	35.170	-696.86005	-3.92450	-575.67981	718.06274	5.15369	-490.99515	-768.16614	4.88725	643.47772	801.30658	11.16931	647.51300	4.33634	741.43347	-982.81885	
3519	35.180	-696.86847	-3.90587	-575.67303	718.25427	4.91814	-490.76083	-768.17145	4.85198	643.50610	801.26361	11.41103	647.79407	4.27910	741.41968	-982.81262	
3520	35.190	-696.91016	-3.89945	-575.68121	718.23517	4.91146	-490.76236	-768.18158	4.84157	643.50690	801.35645	11.42542	647.83051	4.34000	741.42285	-982.80872	
3521	35.200	-696.90942	-3.88160	-575.68091	718.06750	5.11799	-490.95898	-768.18042	4.85921	643.49585	801.31317	11.45004	647.84723	4.31978	741.44995	-982.79761	
3522	35.210	-696.87335	-3.90180	-575.67096	718.27063	4.93342	-490.73874	-768.18591	4.79745	643.45721	801.24927	11.40623	647.83136	4.26965	741.43530	-982.79578	
3523	35.220	-696.86621	-3.90262	-575.67499	718.18658	4.95996	-490.84268	-768.18890	4.86106	643.45319	801.21057	11.43294	647.84326	4.29040	741.44757	-982.81464	
3524	35.230	-696.90631	-3.87311	-575.67322	718.05676	5.13332	-490.99478	-768.21283	4.86385	643.48737	801.16382	11.40827	647.83588	4.28695	741.45282	-982.78955	
3525	35.240	-696.87476	-3.86697	-575.67090	718.23077	4.95077	-490.78445	-768.17633	4.85773	643.48840	801.24054	11.40409	647.79254	4.31222	741.45624	-982.81769	
